<svg xmlns="http://www.w3.org/2000/svg" xmlns:xlink="http://www.w3.org/1999/xlink" id="Layer_1" version="1.1" viewBox="0 0 128 128" xml:space="preserve" style="enable-background:new 0 0 128 128"><style type="text/css">.st12{fill:#2652e4}.st13{fill:#bde5ec}.st24{fill:#ecc6c3}.st37{fill:#fff}.st41,.st43{fill:none}.st43{stroke:#e44450;stroke-width:8;stroke-miterlimit:10}</style><g><path d="M86.2,6C66.5,6,50.4,22,50.4,41.8c0,7.4,2.2,14.2,6,19.9l-6,17.9l21-5.2c4.5,2.1,9.5,3.2,14.8,3.2 c19.8,0,35.8-16,35.8-35.8S106,6,86.2,6z" class="st24"/><circle cx="86" cy="42" r="27" class="st37"/><g><path d="M67.7,96.7c-0.3,0.7-0.7,1.4-1,2.1c-0.8,1.8-1.5,1.5-3.7,1.5c-9.9,0.1-35.1-25-34.8-34.8 c0.1-2.1-0.3-2.8,1.5-3.7c1-0.5,2-0.9,3-1.4c1.3-0.7-6.1-35.9-7.5-35.8c-9.8,0.3-20,7.8-20,27.6c0,27.2,38.1,71.1,71.1,71.1 c18.7,0,26.4-9.1,27.5-18.3C104.1,103.1,68.5,95.1,67.7,96.7z" class="st12"/><g><path d="M103.4,104.8c0.2,0,0.3,0.1,0.5,0.2c0.2-2,0.1-3.9-0.2-5.8c-0.1-0.8-1.2-1.6-2-1.8 c-9.6-2.3-19.3-4.5-29-6.6c-0.7-0.1-1.9,0.5-2.3,1.1c-0.9,1.5-1.8,3.1-2.6,4.8C79.6,99.3,91.5,102,103.4,104.8z" class="st13"/></g><g><path d="M32.8,60.5c1.3-0.7,2.6-1.4,3.9-2.1c0.6-0.4,1.3-1.6,1.1-2.3c-2.1-9.7-4.3-19.3-6.6-29 c-0.2-0.8-1-1.9-1.8-2c-1.5-0.3-3.1-0.4-4.7-0.3C27.5,36.6,30.2,48.5,32.8,60.5z" class="st13"/></g></g><line x1="72" x2="100" y1="42" y2="42" class="st43"/><line x1="86" x2="86" y1="56" y2="28" class="st43"/><rect width="128" height="128" class="st41"/></g></svg>